<svg xmlns="http://www.w3.org/2000/svg" viewBox="0 0 201.05 220.84"><defs><style>.cls-1{fill:#cc2b26;}.cls-2{fill:#275390;}.cls-3{fill:#c3ae40;}.cls-4{fill:#2a5e32;}</style></defs><g id="Layer_2" data-name="Layer 2"><g id="Layer_1-2" data-name="Layer 1"><path class="cls-1" d="M3.15,76.19l32.94,7.46s3,.65,3.24,3.44,2.72,27.68,2.72,27.68S43.16,119,38,117.56s-30.61-7.78-30.61-7.78a4.07,4.07,0,0,1-2.59-3.24C4.25,103.88.17,79.37.17,79.37S-1.06,74.9,3.15,76.19Z"/><path class="cls-1" d="M54.11,87.54l33.72,7.71A5.66,5.66,0,0,1,92.5,101c.13,5.06.45,26.26.45,26.26s.91,4.21-4.8,2.59-31.7-8.36-31.7-8.36-3.24-.71-3.44-3.24-2.46-28.08-2.46-28.08S50.09,86.44,54.11,87.54Z"/><path class="cls-1" d="M108.25,101.09l37.55,7.78s3.17.39,3,4.73-1.23,27.5-1.23,27.5.13,3.43-3.7,2.59-35.72-8.75-35.72-8.75-2.92-.13-3-3.64-1.23-28-1.23-28S103.39,100,108.25,101.09Z"/><path class="cls-1" d="M3.6,109.8l1.65,11.93a5.43,5.43,0,0,0,2.68,3.89c2.5,1.56,20.14,13.32,20.14,13.32s2.94,2.67,2.42-1.73-2.25-19.71-2.25-19.71"/><path class="cls-1" d="M35.33,119.48l2.25,23a4.91,4.91,0,0,0,2.07,4.24c2.34,1.64,23.26,15.73,23.26,15.73s2.77,2.59,2.51-1.56-1.13-23.17-1.13-23.17A4.79,4.79,0,0,0,62.13,133c-2.76-1.9-21-13-21-13"/><path class="cls-1" d="M75.27,141.61s-2.85-2.85-2.5,1.82S74.24,167,74.24,167s-.44,2.51,2.68,4.5S102,188.13,102,188.13s3.63,3.19,3.54-2,.09-21.87.09-21.87a5.81,5.81,0,0,0-2.42-5.11C100.34,156.92,75.27,141.61,75.27,141.61Z"/><path class="cls-1" d="M15.79,132.36l-.08,2.34s-.14,1.4,1.47,4.06c2,3.35,9.59,15,9.59,15s2.74,4.93,2.16-1.38c-.64-7.07-1.21-11.32-1.21-11.32"/><path class="cls-1" d="M31,142.05l1.82,18a18.81,18.81,0,0,0,3.28,7.69c2.78,3.88,10.11,15.56,10.11,15.56s2.81,5.06,2.17-.43c-.8-6.71-1.91-19-1.91-19s-.39-3.37-1.55-5L33.17,142.39S30.92,139,31,142.05Z"/><path class="cls-1" d="M51.84,170.75l1.21,19.71a9.27,9.27,0,0,0,1.47,5.1C56.17,198.15,68.7,217,68.7,217s2.47,4.33,2-2.2c-.5-6.82-.6-18.41-.6-18.41a9.11,9.11,0,0,0-1.91-4.85c-1.9-2.59-14.87-21.7-14.87-21.7S51.41,166.6,51.84,170.75Z"/><path class="cls-2" d="M157.14,106.86l10.25-23.21s1.42-3.76,1.16,2.07-1.94,21.66-1.94,21.66a20.17,20.17,0,0,1-1.43,8.56c-1.81,4.54-9,23.08-9,23.08s-1.16,5.06-1.16-.39.13-25.54.13-25.54A12.29,12.29,0,0,1,157.14,106.86Z"/><path class="cls-2" d="M173.61,70l7.52-16.21s2.08-4.15,1.69.65S180.09,80,180.09,80A20.72,20.72,0,0,1,178,87.8C176,92.34,170.76,104,170.76,104s-1.43,5.57-.91-1.69,1.82-26.71,1.82-26.71A9.52,9.52,0,0,1,173.61,70Z"/><path class="cls-2" d="M186.77,41.44l6-14.65s1.82-4,1.3,1-2.92,25.1-2.92,25.1a17,17,0,0,1-1.1,5.57c-1,2.34-6.29,14.91-6.29,14.91s-2.33,4.41-1.43-1.75,2.73-25.22,2.73-25.22A11.56,11.56,0,0,1,186.77,41.44Z"/><path class="cls-2" d="M132.68,143.86l-17,14s-2.76,2.07-2.94,7.43c-.27,8.56-.43,20.92-.43,20.92s-.43,4.93,3.59,1c4.74-4.59,20.27-18.5,20.53-18.67a7.49,7.49,0,0,0,3-5.58c0-3.8.69-17.51.69-17.51"/><path class="cls-2" d="M148.24,147.06l-.87,9.34s-1,3.37,2.6.26,18.76-16.52,18.76-16.52,2.5-1.38,2.94-6.48,2.16-21.61,2.16-21.61.76-4.16-2.34-1.47c-3.26,2.83-5.88,4.93-5.88,4.93"/><path class="cls-2" d="M180.74,102.32l17.9-15.17s2.92-2.72,2.33,1c-.7,4.51-3,24.12-3,24.12s.13,1.42-2.2,3.76-16.47,15-16.47,15-3.24,3.8-2.86-.91c.48-5.71,2.21-23.86,2.21-23.86A7.15,7.15,0,0,1,180.74,102.32Z"/><path class="cls-2" d="M97,187.05l-17.68,7.6s-2.85.69-2.55,4.93,1.43,19.32,1.43,19.32-.3,3.24,3.63,1.34,27.32-12.53,27.32-12.53,3.8-1.21,3.8-4.33v-12.1"/><path class="cls-2" d="M122.22,182.59V199.1s-.26,3.46,3.89,1.22S152,187.78,152,187.78a4.44,4.44,0,0,0,2.68-3.8c.18-2.86,1.56-19.54,1.56-19.54s.95-4-2.42-2.42-16.17,6.91-16.17,6.91"/><path class="cls-2" d="M167.78,155.27,193.19,144s3.2-1.9,2.85,2.16-2.76,21.18-2.76,21.18a5.8,5.8,0,0,1-2.85,2.68l-24.21,12s-3.55,2.33-2.94-2.68,1.64-20,1.64-20S164.75,156.92,167.78,155.27Z"/><path class="cls-1" d="M69.7.07c-2.4-.42-6.06,1.09-8.12,3.36L45,21.63c-2.06,2.27-1.43,4.65,1.4,5.3a9.64,9.64,0,0,0,8.67-3.15l2-2.49c1.93-2.38,5-4.08,6.7-3.79a24,24,0,0,1,7.7,3.78l16.1,11.54a13.5,13.5,0,0,0,9.62,2c2.8-.67,3-2.64.52-4.39L83,20.25c-2.52-1.74-2.09-3.49.94-3.88l27.82-3.57c3-.39,4.32-1.73,2.84-3s-5.17-2-8.22-1.67L77.13,11.39a41.47,41.47,0,0,1-8.55.12c-1.66-.26-1.41-2.41.55-4.76L70.5,5.11C72.46,2.76,72.1.49,69.7.07Z"/><path class="cls-3" d="M109.83,45.43c-2.75-.6-6.41,1-8.15,3.5L80.08,80.36c-1.73,2.53-.71,5.15,2.28,5.84l61.38,14a7.5,7.5,0,0,0,7.93-3.73l16.86-33.57c1.38-2.74.24-5.42-2.53-6s-6.22,1.22-7.67,3.92L145.68,84.53a7.74,7.74,0,0,1-8.06,3.67l-37.9-8.62c-3-.68-4.07-3.34-2.41-5.92l14.5-22.47C113.47,48.61,112.58,46,109.83,45.43Z"/><path class="cls-4" d="M188.18,22.88c.7-1.35-1.2-2.88-4.22-3.39l-49.12-8.28a9.59,9.59,0,0,0-8.67,3.65L112,35.35c-1.75,2.51-.73,5.08,2.27,5.69L167.9,52.09c3,.61,6.21-.39,7.12-2.22s-.8-3.82-3.8-4.41L126,36.68c-3-.58-4.14-3.19-2.53-5.79l6-9.73a9.05,9.05,0,0,1,8.44-3.84l43.46,7.11C184.42,24.93,187.47,24.22,188.18,22.88Z"/><path class="cls-2" d="M94.65,46c1.15-1.69-.37-3.58-3.37-4.21L42.22,31.56a10.73,10.73,0,0,0-9.18,3L6.26,64.23C4.21,66.5,5,68.9,8,69.57L63.69,81.89a8.62,8.62,0,0,0,8.37-3c1.62-2.33.49-4.75-2.51-5.38L25.4,64.23c-3-.63-3.85-3.07-1.89-5.43L37,42.53a10.23,10.23,0,0,1,9-3.15l41.09,8.56C90.12,48.56,93.51,47.69,94.65,46Z"/></g></g></svg>