<svg xmlns="http://www.w3.org/2000/svg" viewBox="0 0 146.08 87.67"><defs><style>.cls-1{fill:none;stroke:#000;stroke-miterlimit:10;stroke-width:2px;}</style></defs><g id="Layer_2" data-name="Layer 2"><g id="Layer_1-2" data-name="Layer 1"><circle class="cls-1" cx="17.09" cy="20.12" r="11.53"/><path class="cls-1" d="M1.44,86.67H34V57s5.24,5.24,10.15,0S59.71,39,59.71,39a3.91,3.91,0,0,0-.81-4.75c-2.3-2.29-4.75-1.8-6.72,0S43.67,43,43.67,43,41,45.35,35.51,41.38a81.73,81.73,0,0,1-8-6.39,30.16,30.16,0,0,0-9.61-.74c-5.55.41-15.52,4.56-16.5,11.85S1.44,86.67,1.44,86.67Z"/><path class="cls-1" d="M35.91,39.75V7.2s-.14-6,8.32-6.14,94.88,0,94.88,0A6.35,6.35,0,0,1,145,7.49c.29,6.13,0,58.38,0,58.38s-.29,6.86-7.15,7-95.61,0-95.61,0-6.16-.66-6.28-5.83,0-7.35,0-7.35a5.19,5.19,0,0,0,5.64,1.1v4.38s.07,1.66,1.36,1.73,93.83,0,93.83,0,2.31,1,2.6-2.9.2-55.15.2-55.15.38-1.84-2-1.84H43.81a2.36,2.36,0,0,0-2,2.32c0,2,.09,32.55.09,32.55a1.38,1.38,0,0,1-1.54.39C39.47,41.92,35.91,39.75,35.91,39.75Z"/><path d="M67.33,31.27A15.38,15.38,0,0,1,70.4,31,4.77,4.77,0,0,1,74,32.09a3.57,3.57,0,0,1,1,2.58,3.52,3.52,0,0,1-2.33,3.45v.07c.95.36,1.52,1.32,1.82,2.73a22.5,22.5,0,0,0,1,3.72H73.74a19,19,0,0,1-.83-3.24c-.36-1.87-1-2.57-2.48-2.63h-1.5v5.87h-1.6Zm1.6,6.17h1.63a2.52,2.52,0,0,0,2.79-2.57c0-1.75-1.15-2.52-2.84-2.54a6.09,6.09,0,0,0-1.58.16Z"/><path d="M82.7,31.09v8c0,3,1.23,4.32,2.88,4.32,1.84,0,3-1.32,3-4.32v-8h1.62V39c0,4.16-2,5.87-4.68,5.87s-4.45-1.59-4.45-5.79v-8Z"/><path d="M96.87,31.27A15.38,15.38,0,0,1,99.94,31a4.77,4.77,0,0,1,3.58,1.1,3.57,3.57,0,0,1,1,2.58,3.52,3.52,0,0,1-2.33,3.45v.07c1,.36,1.52,1.32,1.82,2.73a23.61,23.61,0,0,0,1,3.72h-1.65a19,19,0,0,1-.83-3.24c-.36-1.87-1-2.57-2.47-2.63H98.47v5.87h-1.6Zm1.6,6.17h1.63a2.52,2.52,0,0,0,2.79-2.57c0-1.75-1.15-2.52-2.84-2.54a6.09,6.09,0,0,0-1.58.16Z"/><path d="M108.9,30.87a24,24,0,0,1-1.73,4.76l-1,.14a29.75,29.75,0,0,0,1.09-4.72Z"/><path d="M114.63,31.09v8c0,3,1.23,4.32,2.88,4.32,1.83,0,3-1.32,3-4.32v-8h1.61V39c0,4.16-2,5.87-4.68,5.87S113,43.27,113,39.07v-8Z"/><path d="M126.8,30.87a24,24,0,0,1-1.73,4.76l-1,.14a29.75,29.75,0,0,0,1.09-4.72Z"/></g></g></svg>