<svg xmlns="http://www.w3.org/2000/svg" viewBox="0 0 133.51 111.04"><defs><style>.cls-1,.cls-2{fill:none;}.cls-1,.cls-2,.cls-3{stroke:#1d1d1b;stroke-miterlimit:10;}.cls-1{stroke-width:3px;}.cls-2,.cls-3{stroke-width:2px;}.cls-3{fill:#fdfdfd;}</style></defs><g id="Layer_2" data-name="Layer 2"><g id="Layer_1-2" data-name="Layer 1"><path class="cls-1" d="M12.26,110.86,1.59,25.33s65.17-53.62,130.34,0l-8.88,85.53"/><path class="cls-1" d="M129,51S76.67,17.57,4.5,51"/><rect class="cls-2" x="48.68" y="66.77" width="14.21" height="14.21"/><rect class="cls-2" x="62.89" y="66.77" width="14.21" height="14.21"/><rect class="cls-2" x="77.11" y="66.77" width="14.21" height="14.21"/><rect class="cls-2" x="48.68" y="80.99" width="14.21" height="14.21"/><rect class="cls-2" x="62.89" y="80.99" width="14.21" height="14.21"/><rect class="cls-2" x="77.11" y="80.99" width="14.21" height="14.21"/><rect class="cls-2" x="48.68" y="95.2" width="14.21" height="14.21"/><rect class="cls-2" x="62.89" y="95.2" width="14.21" height="14.21"/><rect class="cls-2" x="77.11" y="95.2" width="14.21" height="14.21"/><rect class="cls-3" x="25.59" y="78.02" width="10.66" height="10.66"/><rect class="cls-3" x="36.25" y="78.02" width="10.66" height="10.66"/><rect class="cls-3" x="46.9" y="78.02" width="10.66" height="10.66"/><rect class="cls-3" x="25.59" y="88.68" width="10.66" height="10.66"/><rect class="cls-3" x="36.25" y="88.68" width="10.66" height="10.66"/><rect class="cls-3" x="46.9" y="88.68" width="10.66" height="10.66"/><rect class="cls-3" x="25.59" y="99.34" width="10.66" height="10.66"/><rect class="cls-3" x="36.25" y="99.34" width="10.66" height="10.66"/><rect class="cls-3" x="46.9" y="99.34" width="10.66" height="10.66"/></g></g></svg>