<svg xmlns="http://www.w3.org/2000/svg" viewBox="0 0 120.96 116.96"><defs><style>.cls-1{fill:none;stroke:#1d1d1b;}.cls-1,.cls-2{stroke-miterlimit:10;stroke-width:2px;}.cls-2{fill:#1d1d1b;stroke:#020202;}</style></defs><g id="Layer_2" data-name="Layer 2"><g id="Layer_1-2" data-name="Layer 1"><rect class="cls-1" x="1.07" y="16.98" width="10.55" height="10.55"/><rect class="cls-1" x="11.61" y="16.98" width="10.55" height="10.55"/><rect class="cls-1" x="22.16" y="16.98" width="10.55" height="10.55"/><rect class="cls-1" x="1.07" y="27.53" width="10.55" height="10.55"/><rect class="cls-1" x="11.61" y="27.53" width="10.55" height="10.55"/><rect class="cls-2" x="22.16" y="27.53" width="10.55" height="10.55"/><rect class="cls-1" x="1.07" y="38.07" width="10.55" height="10.55"/><rect class="cls-2" x="11.61" y="38.07" width="10.55" height="10.55"/><rect class="cls-2" x="22.16" y="38.07" width="10.55" height="10.55"/><rect class="cls-1" x="34.93" y="16.98" width="10.55" height="10.55"/><rect class="cls-1" x="45.48" y="16.98" width="10.55" height="10.55"/><rect class="cls-1" x="56.02" y="16.98" width="10.55" height="10.55"/><rect class="cls-1" x="34.93" y="27.53" width="10.55" height="10.55"/><rect class="cls-1" x="45.48" y="27.53" width="10.55" height="10.55"/><rect class="cls-1" x="56.02" y="27.53" width="10.55" height="10.55"/><rect class="cls-2" x="34.93" y="38.07" width="10.55" height="10.55"/><rect class="cls-1" x="45.48" y="38.07" width="10.55" height="10.55"/><rect class="cls-2" x="56.02" y="38.07" width="10.55" height="10.55"/><rect class="cls-1" x="88.16" y="3.03" width="10.55" height="10.55" transform="translate(11.72 -37.76) rotate(24.33)"/><rect class="cls-1" x="97.77" y="7.37" width="10.55" height="10.55" transform="translate(14.36 -41.34) rotate(24.33)"/><rect class="cls-1" x="107.38" y="11.72" width="10.55" height="10.55" transform="translate(17.01 -44.91) rotate(24.33)"/><rect class="cls-2" x="83.82" y="12.64" width="10.55" height="10.55" transform="translate(15.29 -35.12) rotate(24.33)"/><rect class="cls-1" x="93.43" y="16.98" width="10.55" height="10.55" transform="translate(17.94 -38.69) rotate(24.33)"/><rect class="cls-1" x="103.04" y="21.33" width="10.55" height="10.55" transform="translate(20.58 -42.27) rotate(24.33)"/><rect class="cls-2" x="79.47" y="22.25" width="10.55" height="10.55" transform="translate(18.87 -32.47) rotate(24.33)"/><rect class="cls-2" x="89.08" y="26.59" width="10.55" height="10.55" transform="translate(21.51 -36.05) rotate(24.33)"/><rect class="cls-1" x="98.69" y="30.94" width="10.55" height="10.55" transform="translate(24.16 -39.62) rotate(24.33)"/><rect class="cls-1" x="1" y="50.65" width="10.55" height="10.55"/><rect class="cls-2" x="11.55" y="50.65" width="10.55" height="10.55"/><rect class="cls-2" x="22.09" y="50.65" width="10.55" height="10.55"/><rect class="cls-1" x="1" y="61.2" width="10.55" height="10.55"/><rect class="cls-2" x="11.55" y="61.2" width="10.55" height="10.55"/><rect class="cls-2" x="22.09" y="61.2" width="10.55" height="10.55"/><rect class="cls-1" x="1" y="71.75" width="10.55" height="10.55"/><rect class="cls-1" x="11.55" y="71.75" width="10.55" height="10.55"/><rect class="cls-2" x="22.09" y="71.75" width="10.55" height="10.55"/><rect class="cls-2" x="34.86" y="50.65" width="10.55" height="10.55"/><rect class="cls-2" x="45.41" y="50.65" width="10.55" height="10.55"/><rect class="cls-2" x="55.95" y="50.65" width="10.55" height="10.55"/><rect class="cls-2" x="34.86" y="61.2" width="10.55" height="10.55"/><rect class="cls-2" x="45.41" y="61.2" width="10.55" height="10.55"/><rect class="cls-2" x="55.95" y="61.2" width="10.55" height="10.55"/><rect class="cls-2" x="34.86" y="71.75" width="10.55" height="10.55"/><rect class="cls-2" x="45.41" y="71.75" width="10.55" height="10.55"/><rect class="cls-2" x="55.95" y="71.75" width="10.55" height="10.55"/><rect class="cls-2" x="68.86" y="50.65" width="10.55" height="10.55"/><rect class="cls-2" x="79.41" y="50.65" width="10.55" height="10.55"/><rect class="cls-1" x="89.95" y="50.65" width="10.55" height="10.55"/><rect class="cls-2" x="68.86" y="61.2" width="10.55" height="10.55"/><rect class="cls-2" x="79.41" y="61.2" width="10.55" height="10.55"/><rect class="cls-1" x="89.95" y="61.2" width="10.55" height="10.55"/><rect class="cls-2" x="68.86" y="71.75" width="10.55" height="10.55"/><rect class="cls-1" x="79.41" y="71.75" width="10.55" height="10.55"/><rect class="cls-1" x="89.95" y="71.75" width="10.55" height="10.55"/><rect class="cls-1" x="1" y="84.33" width="10.55" height="10.55"/><rect class="cls-1" x="11.55" y="84.33" width="10.55" height="10.55"/><rect class="cls-1" x="22.09" y="84.33" width="10.55" height="10.55"/><rect class="cls-1" x="1" y="94.87" width="10.55" height="10.55"/><rect class="cls-1" x="11.55" y="94.87" width="10.55" height="10.55"/><rect class="cls-1" x="22.09" y="94.87" width="10.55" height="10.55"/><rect class="cls-1" x="1" y="105.42" width="10.55" height="10.55"/><rect class="cls-1" x="11.55" y="105.42" width="10.55" height="10.55"/><rect class="cls-1" x="22.09" y="105.42" width="10.55" height="10.55"/><rect class="cls-2" x="34.86" y="84.33" width="10.55" height="10.55"/><rect class="cls-2" x="45.41" y="84.33" width="10.55" height="10.55"/><rect class="cls-2" x="55.95" y="84.33" width="10.55" height="10.55"/><rect class="cls-1" x="34.86" y="94.87" width="10.55" height="10.55"/><rect class="cls-2" x="45.41" y="94.87" width="10.55" height="10.55"/><rect class="cls-1" x="55.95" y="94.87" width="10.55" height="10.55"/><rect class="cls-1" x="34.86" y="105.42" width="10.55" height="10.55"/><rect class="cls-1" x="45.41" y="105.42" width="10.55" height="10.55"/><rect class="cls-1" x="55.95" y="105.42" width="10.55" height="10.55"/><rect class="cls-1" x="79.41" y="84.33" width="10.55" height="10.55"/><rect class="cls-1" x="89.95" y="84.33" width="10.55" height="10.55"/><rect class="cls-1" x="79.41" y="94.87" width="10.55" height="10.55"/><rect class="cls-1" x="89.95" y="94.87" width="10.55" height="10.55"/><rect class="cls-1" x="68.86" y="84.33" width="10.55" height="10.55"/><rect class="cls-1" x="68.86" y="94.87" width="10.55" height="10.55"/><rect class="cls-1" x="68.86" y="105.42" width="10.55" height="10.55"/><rect class="cls-1" x="79.41" y="105.42" width="10.55" height="10.55"/><rect class="cls-1" x="89.95" y="105.42" width="10.55" height="10.55"/></g></g></svg>